<svg preserveAspectRatio="none" overflow="visible" style="display: block;" width="47.52" height="47.52" viewBox="0 0 47.52 47.52" fill="none" xmlns="http://www.w3.org/2000/svg">
<g id="High Water Level medium">
<path id="Vector" d="M23.76 47.52C36.8823 47.52 47.52 36.8823 47.52 23.76C47.52 10.6377 36.8823 0 23.76 0C10.6377 0 0 10.6377 0 23.76C0 36.8823 10.6377 47.52 23.76 47.52Z" fill="white"/>
<path id="Vector_2" d="M23.76 43.63C34.7339 43.63 43.63 34.7339 43.63 23.76C43.63 12.7861 34.7339 3.88998 23.76 3.88998C12.7861 3.88998 3.89001 12.7861 3.89001 23.76C3.89001 34.7339 12.7861 43.63 23.76 43.63Z" fill="#FF8500"/>
<path id="Vector_3" d="M33.77 29.19C31.99 29.19 31.03 28.42 30.33 27.86C29.77 27.41 29.49 27.19 28.76 27.19C28.03 27.19 27.75 27.41 27.19 27.86C26.49 28.42 25.53 29.19 23.75 29.19C21.97 29.19 21.01 28.42 20.31 27.86C19.75 27.41 19.47 27.19 18.75 27.19C18.03 27.19 17.74 27.41 17.18 27.86C16.48 28.42 15.52 29.19 13.74 29.19C11.96 29.19 11 28.42 10.3 27.86C9.73998 27.41 9.45998 27.19 8.72998 27.19V24.19C10.51 24.19 11.47 24.96 12.17 25.52C12.73 25.97 13.01 26.19 13.74 26.19C14.47 26.19 14.75 25.97 15.31 25.52C16.01 24.96 16.97 24.19 18.75 24.19C20.53 24.19 21.49 24.96 22.19 25.52C22.75 25.97 23.03 26.19 23.76 26.19C24.49 26.19 24.77 25.97 25.33 25.52C26.03 24.96 26.99 24.19 28.77 24.19C30.55 24.19 31.51 24.96 32.21 25.52C32.77 25.97 33.05 26.19 33.78 26.19C34.51 26.19 34.79 25.97 35.35 25.52C36.05 24.96 37.01 24.19 38.79 24.19V27.19C38.06 27.19 37.78 27.41 37.22 27.86C36.52 28.42 35.56 29.19 33.78 29.19H33.77Z" fill="white"/>
<path id="Vector_4" d="M33.77 35.78C31.99 35.78 31.03 35.01 30.33 34.45C29.77 34 29.49 33.78 28.76 33.78C28.03 33.78 27.75 34 27.19 34.45C26.49 35.01 25.53 35.78 23.75 35.78C21.97 35.78 21.01 35.01 20.31 34.45C19.75 34 19.47 33.78 18.75 33.78C18.03 33.78 17.74 34 17.18 34.45C16.48 35.01 15.52 35.78 13.74 35.78C11.96 35.78 11 35.01 10.3 34.45C9.73998 34 9.45998 33.78 8.72998 33.78V30.78C10.51 30.78 11.47 31.55 12.17 32.11C12.73 32.56 13.01 32.78 13.74 32.78C14.47 32.78 14.75 32.56 15.31 32.11C16.01 31.55 16.97 30.78 18.75 30.78C20.53 30.78 21.49 31.55 22.19 32.11C22.75 32.56 23.03 32.78 23.76 32.78C24.49 32.78 24.77 32.56 25.33 32.11C26.03 31.55 26.99 30.78 28.77 30.78C30.55 30.78 31.51 31.55 32.21 32.11C32.77 32.56 33.05 32.78 33.78 32.78C34.51 32.78 34.79 32.56 35.35 32.11C36.05 31.55 37.01 30.78 38.79 30.78V33.78C38.06 33.78 37.78 34 37.22 34.45C36.52 35.01 35.56 35.78 33.78 35.78H33.77Z" fill="white"/>
<g id="Group">
<path id="Vector_5" d="M25.26 13.85H22.26V23.3H25.26V13.85Z" fill="white"/>
<path id="Vector_6" d="M27.35 14.9L23.76 8.69L20.17 14.9H27.35Z" fill="white"/>
</g>
</g>
</svg>
